<?xml version="1.0" encoding="UTF-8"?>
<svg id="Lag_1" data-name="Lag 1" xmlns="http://www.w3.org/2000/svg" viewBox="0 0 330 330.07">
  <defs>
    <style>
      .cls-1 {
        fill: #ff6201;
      }
    </style>
  </defs>
  <g>
    <path class="cls-1" d="M48.83,107.56c3.94-1.1,7.61-1.35,8.28,7.19,1.1,14.1-.86,29.89-1.3,44.72-1.25,10.33-1.64,20.99-12.39,25.75-13.08,6.22-25.26,13.19-38.98,17.94C-.08,146.03,16.78,94.57,49.4,47.96c0,0,7.73-6.97,12.77-10.81,5.41-4.13,14.92-10.81,14.92-10.81,3.34-2.16,8.29-5.4,5.8,3.79-4.46,16.46-12.18,32.87-17.34,49.61-5.33,17.36-7.27,18.61-13.99,22.77-3.88,2.57-5.82,3.88-9.66,6.56,2.74-.64,4.13-.94,6.93-1.51ZM34.02,176.03c4.05-14.55,2.86-30.92,4.08-45.82.61-5.5.99-10.35.44-13.54-1-6.43-5.3-3.1-9.35-.67-4.68,23.09-6.45,45.24-5.37,68.75,3.95-1.96,9.18-5.36,10.2-8.73ZM56.21,63.19c2.45-5.91,6.35-14.29,7.45-18.3,1.66-6.08-1.62-3.2-4.34-1.28-3.35,2.36-4.99,3.59-8.18,6.14-1.58,2.48-2.35,3.74-3.86,6.29,3.78-2.93,4.59-2.86,3.03,1.5-.81,2.43-2.41,3.81-10.54,24.52-3.85,9.72-5.53,14.75-8.34,25.05,2.59-1.58,8.02-4.1,9.86-6.74,7.04-10.92,10.3-25.17,14.92-37.18Z"/>
    <path class="cls-1" d="M98.09,91.3c-.75,5.29-1.07,7.97-1.61,13.37-10.4,3.21-20.53,6.66-30.73,10.44.64-5.47,1.03-8.19,1.93-13.55,9.9-3.92,20.17-7.38,30.42-10.26Z"/>
    <path class="cls-1" d="M145.1,81.1c2.58.56,6.89.36,8.54,5.9,1.09,3.57,1.07,12.35,1.47,20.91.61,13.64,1.86,27.24,3.69,40.77-5.07,1.05-7.6,1.61-12.66,2.77-4.23.97-6.48,2.11-8.23-1.41-1.57-3.16-2.66-11.81-3.6-23.06-.82-9.38-1.09-14.18-1.32-23.54-.2-7.93.02-16.85-2.02-20.22-.68-1-1.73-1.37-3.89-1.14-2.86,25.03-3.55,49.47-2.12,74.63-8.65,2.31-12.96,3.55-21.56,6.2-3.75-54.14,4.05-105.5,23.41-156.17,7.37-1.7,11.13-2.35,18.78-3.23,5.86-.67,15.76-2.27,15.76-2.27,6.77-.75,10.96-.85,11.24,8.28.45,14.73-4.79,31.77-8.2,46.99-3.99,17.66-10.73,18.2-14,19.14-5.29,1.51-7.92,2.33-13.17,4.07,3.14.53,4.71.81,7.88,1.39ZM142.7,60.24c3.28-13.92,8.27-29.34,8.56-42.66.16-7.63-3.38-6.8-8.3-6.2-3.78.46-5.66.74-9.38,1.4-.84,2.46-1.26,3.7-2.07,6.22,4.92-.88,6.37.02,6.49,4.81.12,2.87-1.68,9.71-4.94,24.18-2.33,10.43-3.35,15.82-5.01,26.87,4.07-.76,10.99-.84,14.65-14.61Z"/>
    <path class="cls-1" d="M220.36,9.65c3.05,1.08,7.77,3.35,10.43,12.14,2.1,6.96,1.82,16.8,1.25,25.66,0,0-.97,15.44-1.66,25.71-.77,11.44-1.63,22.9-2.35,34.35-.86,10.37.12,32.76-14.61,34.87,0,0-9.75,1.86-16.03,2.84-5.24.82-13.49,1.68-13.49,1.68-3.16.37-9.26,1.17-13.25-9.41-3.06-10.25-3.04-21.33-2.53-31.92.64-12.63,1.74-25.26,3.37-37.77,1.41-10.84,3.22-21.69,5.38-32.43,2.24-9.63,4.66-34.28,20.15-31.54,0,0,7.81.94,12.64,2.3,4.22,1.18,10.7,3.53,10.7,3.53ZM191.46,72.34c-1.25,11.07-2.15,22.23-2.71,33.37-.49,9.25-.76,21.99,1.45,27.09,2.43,5.61,8.85,3.28,9.57,3.01,8.13-6.66,6.48-22.04,7.07-31.22.77-11.19,1.79-22.37,2.9-33.53,1.09-10.89,2.23-21.79,3.49-32.67.98-7.95,2.27-16.24.37-21.55-1.58-4.43-7.8-4.61-9.03-3.87-4.08,2.82-6.21,13.3-7.88,22.91-2.1,12.1-3.86,24.27-5.24,36.47Z"/>
    <path class="cls-1" d="M258.98,104.12c-.68,18.4-1.69,17.65-10.06,17.91-.45.01-.67.02-1.12.03-.05,2.39-.07,3.59-.12,5.99,10-.17,21.42-1.46,30.87-4.97-.09,4.36-.16,6.57-.33,11.03-14.16.76-28.27,1.77-42.4,3.03,1.48-38.92,5.01-77.88,5.22-116.84,6.67,3.35,9.91,5.2,16.13,9.23,3.45,24.66,2.52,49.77,1.81,74.58Z"/>
    <path class="cls-1" d="M304.64,108.78c.8,14.03-.62,13.61-8.86,13.34-.44-.01-.66-.02-1.1-.04.02,1.92.02,2.89.01,4.84,9.84.32,20.67-.09,30.31-2.32.18,3.27.22,4.94.21,8.35-14.11.11-28.19.42-42.29.94,1.13-30.33,2.64-62.89-8.68-91.72,5.64,4.75,8.33,7.28,13.42,12.61,11.07,17.25,14.86,33.61,16.98,53.99Z"/>
  </g>
  <g>
    <path class="cls-1" d="M41.54,214c-.29-6.15.13-8.91,5.09-12.39,9.98-7.02,15.61-12.91,17.55-15.88,1.52-2.33-1.55-1.36-3.07-.59-4.47,2.36-11.07,8.42-22.83,15.82,0,0-8.02,14.89-6.61,26.07,1.3,10.3,3.61,20.75,6.85,30.69,2.22,6.63,4.83,12.77,8.4,17.97,5.7,8.33,10.51,10.07,12.61,9.89,1.59-.08,2.44-.18,4.21-.49,1.24,4.66,1.91,6.91,3.36,11.27,0,0-5.73-3.08-9.41-6.09-2.27-1.86-5.9-5.17-5.9-5.17-3.26-3.03-7.35-7.34-14.48-15.7-4.62-5.42-9.48-12.47-12.19-17.78,0,0-6.36-13.98-8.83-24.01-2.59-10.54,3.46-23.75,3.46-23.75,13.21-6.46,25.36-15.55,39.01-21.06,0,0,5.82-2.43,9.39-3.8,3.85-1.48,9.6-3.41,9.6-3.41,2.93-1.05,5.91-1.13,1.17,6.83-5.5,8.79-13.56,15.66-21.18,22.49-.08,3.76-.11,5.62-.13,9.3-6.49-.06-9.71-.1-16.08-.2Z"/>
    <path class="cls-1" d="M116.86,165c-5.8,11.13-19.99,27.43-22.3,39.59-1.69,8.92,1.46,24.35,2.14,33.47,1.92,25.93,4.62,51.76,8.04,77.54-3.01-1.12-4.5-1.71-7.44-2.96-2.72-1.15-4.17-1.88-5.48-4.81-1.42-3.17-2.84-10.44-4.85-22.58-.76-4.77-1.12-7.19-1.81-12.1-5.86-1.43-8.75-2.22-14.43-3.91.66,10.54,1.34,20.99,3.37,31.37-1.43-.89-2.14-1.34-3.55-2.26-4.75-20.49-5-41.94-4.4-62.86.31-10.89-1.05-24.29,4.95-33.89,6.99-11.18,20.46-21.43,28.82-31.84,6.76-2,10.15-2.95,16.94-4.77ZM83.1,258.49c-1.65-13.65-4.28-27.87-4.34-41.65-.07-15.52,5.95-21.47,14.55-34.07-10.39,11.9-18.92,18.08-21.39,33.97-1.99,12.77-1.39,26.43-1.54,39.31,5.03,1.05,7.57,1.54,12.72,2.44Z"/>
    <path class="cls-1" d="M165.84,170.15c-2.3-1.8-3.43-2.68-5.65-4.39-3.73-3.1-9.45-6.89-19.66,10.93-8.39,15.56-16.28,26.1-14.08,43.68,1.26,10.07,4.52,9.89,7.79,10.75,2.78.6,4.18.9,6.97,1.48,2.77.4,8.28.42,9.9,12.77,2.67,20.45-.08,43.37-2.61,64.33-2.33,18.18-9.05,18.21-11.93,17.71,0,0-6.82-1.06-11-2.29-3.22-.95-8.19-3.1-8.19-3.1-3.39-1.52-6.7-3.77-9.04-12.59-1.41-5.43-1.83-11.49-1.81-18.98.02-7.3.21-14.52.31-18.16,6.36.96,9.58,1.37,16.1,2.03-.07,3.15-.1,4.71-.17,7.8-.12,9.75-1.14,20.59.86,29.76.99,4.55,3.12,4.78,4.25,4.77,2.03-.02,3.41-1.84,4.24-12.63,1.12-15.74,3.21-32.86,1.16-47.72-1.13-8.22-4.34-8.47-7.79-9.02-2.91-.61-4.37-.93-7.27-1.56-3.76-.8-8.07-1.17-9.97-11.71-1.48-8.21-3.48-22.37-1-30.45,2.5-8.15,10.92-16.75,15.38-24.17,5.87-9.13,11.29-21.6,23.07-23.93,0,0,7.05-1.52,11.24-1.82,5.52-.39,10.04-.06,14.35.87-2.05,6.25-3.13,9.41-5.46,15.64Z"/>
    <path class="cls-1" d="M174.31,152.26c13.44-2.42,26.94-4.49,40.49-6.25-.96,5.75-1.49,8.66-2.7,14.47-2.59-2.76-5.56-3.8-9.79-2.84-7.46,29.35-12.48,55.02-14.98,85.26-2.3,27.79-5.8,55.42-9.91,82.99-6.72.48-10.18.57-16.98.4,4.92-43.36,2.6-91.76,13.2-133.8,3.67-9.29,5.33-23.56,16.5-25.6.39-.05.58-.07.96-.12.87-3.15,1.28-4.73,2.07-7.88-6.8.95-16.54,2.48-24.02,8.71,2.19-6.12,3.22-9.21,5.15-15.32Z"/>
    <path class="cls-1" d="M237.32,143.37c-4.09,30.21-10.05,59.42-13.33,89.78-3.19,29.51-8.56,58.62-15.18,87.54-6.34,1.66-9.57,2.35-16.13,3.41,5.42-29.33,9.88-58.79,12.56-88.51,2.81-31.15,9.5-59.57,15-90.27,6.83-.85,10.24-1.23,17.08-1.95Z"/>
    <path class="cls-1" d="M264.05,140.92c.61,50.27-2.63,103.06-14.9,151.94,15.99-48.8,25.61-101.62,28.26-152.9,1.62-.11,2.43-.16,4.05-.26-2.51,56.2-14.05,113.21-34.13,165.73-6.21,3.38-9.42,4.92-16.01,7.67,11.82-51.13,12.14-102.93,16.06-154.93-8.84,53.31-14.09,106.89-27.96,159.38-1.46.49-2.2.72-3.68,1.18,14.45-57.32,22.45-117.57,29.4-176.14,7.57-.73,11.35-1.06,18.91-1.66Z"/>
    <path class="cls-1" d="M328.02,151.38c-2.48-1.36-3.73-2.05-6.24-3.46-4.29-2.4-9.36-3.44-11.35-1.45-7.31,7.35-6.78,23-8.48,33.49-2.52,13.24-4.3,26.62-7.56,39.65-3.51,14.02-7.96,27.97-13.32,41.47-3.24,8.16-8,18.72-9.14,22.78-.76,2.79.72,2.26,2.27.66,2.72-2.82,5.52-6.7,11.48-18.26,5.64-10.98,12.22-23.16,14.03-34.78.77-4.98-1.99-4.69-4.41-3.9,1.1-3.85,1.62-5.78,2.59-9.68,8.86-2.51,13.2-3.85,21.7-6.64-3.01,9.3-6.82,18.65-11.13,27.43-7.22,15.01-16.3,29.15-26.77,42.1-2.74,3.31-3.67,4.26-5.35,5.83,0,0-4.46,4.17-7.25,6.45-2.42,1.97-6.15,4.46-6.15,4.46-1.94,1.32-5.41,3.84-3.28-5.51,2.7-11.86,6.84-23.66,10.35-35.43,3.82-13.16,6.96-26.52,9.35-40.01,1.91-10.78,2.81-21.74,4.85-32.48,1.79-9.78,1.3-49.87,18.81-48.5,0,0,5.97-.07,9.65.23,5.69.46,10.36,1.31,15.15,2.54.27,5.12.31,7.72.17,13.02Z"/>
  </g>
</svg>